<svg width="37" height="37" viewBox="0 0 37 37" fill="none" xmlns="http://www.w3.org/2000/svg">
<path d="M35.2344 16.1094L31.0156 13.2969L32 8.30469C32.1406 7.39062 31.8594 6.40625 31.2266 5.70312C30.5234 5.07031 29.5391 4.78906 28.625 4.92969L23.6328 5.91406L20.8203 1.69531C19.7656 0.148438 17.1641 0.148438 16.1094 1.69531L13.2969 5.91406L8.30469 4.92969C7.39062 4.78906 6.40625 5.07031 5.77344 5.77344C5.07031 6.40625 4.78906 7.39062 4.92969 8.30469L5.91406 13.2969L1.69531 16.1094C0.921875 16.6719 0.5 17.5156 0.5 18.5C0.5 19.4141 0.921875 20.3281 1.69531 20.8203L5.91406 23.7031L4.92969 28.6953C4.78906 29.6094 5.07031 30.5938 5.77344 31.2266C6.40625 31.9297 7.32031 32.2109 8.30469 32L13.2969 31.0859L16.1094 35.3047C16.6719 36.0781 17.5156 36.5 18.5 36.5C19.4141 36.5 20.3281 36.0781 20.8203 35.3047L23.6328 31.0859L28.625 32C29.6094 32.2109 30.5234 31.9297 31.2266 31.2266C31.8594 30.5938 32.1406 29.6094 32 28.6953L31.0156 23.7031L35.2344 20.8906C36.0078 20.3281 36.5 19.4141 36.5 18.5C36.5 17.5156 36.0078 16.6719 35.2344 16.1094ZM27.2891 22.1562L28.4844 28.5547L22.0859 27.3594L18.5 32.7031L14.8438 27.2891L8.44531 28.5547L9.64062 22.1562L4.29688 18.5L9.64062 14.8438L8.44531 8.44531L14.8438 9.64062L18.5 4.22656L22.0859 9.64062L28.4844 8.44531L27.2891 14.8438L32.7031 18.5L27.2891 22.1562ZM18.5 11.1875C14.4219 11.1875 11.1875 14.4922 11.1875 18.5C11.1875 22.5781 14.4219 25.8125 18.5 25.8125C22.5078 25.8125 25.8125 22.5781 25.8125 18.5C25.8125 14.4922 22.5078 11.1875 18.5 11.1875ZM18.5 22.4375C16.3203 22.4375 14.5625 20.6797 14.5625 18.5C14.5625 16.3906 16.3203 14.5625 18.5 14.5625C20.6094 14.5625 22.4375 16.3906 22.4375 18.5C22.4375 20.6797 20.6094 22.4375 18.5 22.4375Z" fill="white"/>
</svg>
